<svg width="141" height="127" viewBox="0 0 141 127" fill="none" xmlns="http://www.w3.org/2000/svg">
  <path fill-rule="evenodd" clip-rule="evenodd" d="M138.68 49.8725C135.686 43.7174 126.206 39.2401 107.248 30.2856L61.3583 8.61056C49.425 2.9741 43.4583 0.155875 38.1495 0.65568C33.4943 1.09396 29.1528 3.19452 25.92 6.57269C22.2334 10.4251 20.7401 16.8527 17.7536 29.7079L17.7536 29.7079L15.3258 40.1579C14.8421 42.24 14.6002 43.2811 14.844 44.1359C15.0582 44.8866 15.5214 45.5421 16.1576 45.9945C16.8821 46.5096 17.9442 46.629 20.0684 46.8679L97.3059 55.5531C98.0435 55.636 98.601 56.2598 98.601 57.0019C98.601 57.7236 98.0731 58.3367 97.3594 58.4438L11.6554 71.3075C10.3215 71.5077 9.6545 71.6078 9.1107 71.9099C8.63022 72.1768 8.22075 72.555 7.91662 73.0128C7.57243 73.531 7.41981 74.188 7.11456 75.5018L6.38188 78.6555C1.70132 98.8023 -0.63896 108.876 2.28889 115.018C4.83529 120.36 9.67539 124.253 15.4396 125.594C22.0672 127.136 31.4039 122.689 50.0774 113.795L107.339 86.5222C126.268 77.5065 135.733 72.9987 138.707 66.8339C141.294 61.4737 141.284 55.2243 138.68 49.8725Z" fill="url(#paint0_linear_21_13814)"/>
  <path fill-rule="evenodd" clip-rule="evenodd" d="M138.68 49.8725C135.686 43.7174 126.206 39.2401 107.248 30.2856L61.3583 8.61056C49.425 2.9741 43.4583 0.155875 38.1495 0.65568C33.4943 1.09396 29.1528 3.19452 25.92 6.57269C22.2334 10.4251 20.7401 16.8527 17.7536 29.7079L17.7536 29.7079L15.3258 40.1579C14.8421 42.24 14.6002 43.2811 14.844 44.1359C15.0582 44.8866 15.5214 45.5421 16.1576 45.9945C16.8821 46.5096 17.9442 46.629 20.0684 46.8679L97.3059 55.5531C98.0435 55.636 98.601 56.2598 98.601 57.0019C98.601 57.7236 98.0731 58.3367 97.3594 58.4438L11.6554 71.3075C10.3215 71.5077 9.6545 71.6078 9.1107 71.9099C8.63022 72.1768 8.22075 72.555 7.91662 73.0128C7.57243 73.531 7.41981 74.188 7.11456 75.5018L6.38188 78.6555C1.70132 98.8023 -0.63896 108.876 2.28889 115.018C4.83529 120.36 9.67539 124.253 15.4396 125.594C22.0672 127.136 31.4039 122.689 50.0774 113.795L107.339 86.5222C126.268 77.5065 135.733 72.9987 138.707 66.8339C141.294 61.4737 141.284 55.2243 138.68 49.8725Z" fill="url(#paint1_linear_21_13814)"/>
  <mask id="mask0_21_13814" style="mask-type:alpha" maskUnits="userSpaceOnUse" x="0" y="0" width="141" height="126">
  <path d="M107.248 30.2854C126.206 39.24 135.686 43.7172 138.68 49.8723C141.284 55.2242 141.294 61.4735 138.707 66.8338C135.733 72.9985 126.268 77.5064 107.339 86.5221L50.0774 113.795C31.4039 122.689 22.0672 127.136 15.4396 125.594C9.67538 124.253 4.83528 120.36 2.28887 115.018C-0.638982 108.876 1.7013 98.8022 6.38186 78.6554L17.7535 29.7078C20.7401 16.8526 22.2334 10.425 25.92 6.57255C29.1528 3.19438 33.4943 1.09382 38.1495 0.655544C43.4583 0.15574 49.4249 2.97397 61.3583 8.61043L107.248 30.2854Z" fill="url(#paint2_linear_21_13814)"/>
  <path d="M107.248 30.2854C126.206 39.24 135.686 43.7172 138.68 49.8723C141.284 55.2242 141.294 61.4735 138.707 66.8338C135.733 72.9985 126.268 77.5064 107.339 86.5221L50.0774 113.795C31.4039 122.689 22.0672 127.136 15.4396 125.594C9.67538 124.253 4.83528 120.36 2.28887 115.018C-0.638982 108.876 1.7013 98.8022 6.38186 78.6554L17.7535 29.7078C20.7401 16.8526 22.2334 10.425 25.92 6.57255C29.1528 3.19438 33.4943 1.09382 38.1495 0.655544C43.4583 0.15574 49.4249 2.97397 61.3583 8.61043L107.248 30.2854Z" fill="url(#paint3_linear_21_13814)"/>
  </mask>
  <g mask="url(#mask0_21_13814)">
  <g filter="url(#filter0_f_21_13814)">
  <circle cx="104.204" cy="58.2035" r="38.4712" fill="url(#paint4_linear_21_13814)"/>
  </g>
  </g>
  <defs>
  <filter id="filter0_f_21_13814" x="33.0775" y="-12.9231" width="142.253" height="142.253" filterUnits="userSpaceOnUse" color-interpolation-filters="sRGB">
  <feFlood flood-opacity="0" result="BackgroundImageFix"/>
  <feBlend mode="normal" in="SourceGraphic" in2="BackgroundImageFix" result="shape"/>
  <feGaussianBlur stdDeviation="16.3277" result="effect1_foregroundBlur_21_13814"/>
  </filter>
  <linearGradient id="paint0_linear_21_13814" x1="166.577" y1="58.3085" x2="-47.348" y2="58.3085" gradientUnits="userSpaceOnUse">
  <stop stop-color="white"/>
  <stop offset="1" stop-color="white"/>
  </linearGradient>
  <linearGradient id="paint1_linear_21_13814" x1="141" y1="58.3085" x2="0.999947" y2="58.3085" gradientUnits="userSpaceOnUse">
  <stop stop-color="#0075FF"/>
  <stop offset="1" stop-color="#41D1FF"/>
  </linearGradient>
  <linearGradient id="paint2_linear_21_13814" x1="166.577" y1="58.3083" x2="-47.3481" y2="58.3083" gradientUnits="userSpaceOnUse">
  <stop stop-color="white"/>
  <stop offset="1" stop-color="white"/>
  </linearGradient>
  <linearGradient id="paint3_linear_21_13814" x1="166.577" y1="58.3083" x2="-47.3481" y2="58.3083" gradientUnits="userSpaceOnUse">
  <stop stop-color="#00C2FF"/>
  <stop offset="1" stop-color="white"/>
  </linearGradient>
  <linearGradient id="paint4_linear_21_13814" x1="141" y1="58.603" x2="1.00965" y2="57.4413" gradientUnits="userSpaceOnUse">
  <stop stop-color="#0075FF"/>
  <stop offset="1" stop-color="#41D1FF"/>
  </linearGradient>
  </defs>
  </svg>
  